{"asset":{"version":"2.0","generator":"Blockbench 5.1.5 glTF exporter"},"scenes":[{"nodes":[4,6],"name":"blockbench_export"}],"scene":0,"nodes":[{"rotation":[0.16221169577129801,-0.10838634679788645,-0.5448951439202862,0.8154931316172436],"translation":[1.1875,0.9375,0.9375],"name":"cone","mesh":0},{"rotation":[0.16221169577129801,0.10838634679788645,0.5448951439202862,0.8154931316172436],"translation":[-1.1875,0.9375,0.9375],"name":"cone","mesh":1},{"rotation":[-0.46193973330995247,-0.4619397721104764,-0.30865833049283176,0.6913417134452606],"translation":[1.1875,0.9375,-0.0625],"name":"cone","mesh":2},{"rotation":[-0.46193973330995247,0.4619397721104764,0.30865833049283176,0.6913417134452606],"translation":[-1.1875,0.9375,-0.0625],"name":"cone","mesh":3},{"rotation":[-4.329780281177466e-17,-0.7071067811865475,0.7071067811865476,4.329780281177467e-17],"translation":[0,1,0],"name":"wings","children":[0,1,2,3]},{"name":"mesh","mesh":4},{"name":"body","children":[5]}],"bufferViews":[{"buffer":0,"byteOffset":0,"byteLength":1728,"target":34962,"byteStride":12},{"buffer":0,"byteOffset":1728,"byteLength":1728,"target":34962,"byteStride":12},{"buffer":0,"byteOffset":3456,"byteLength":1152,"target":34962,"byteStride":8},{"buffer":0,"byteOffset":4608,"byteLength":288,"target":34963},{"buffer":0,"byteOffset":4896,"byteLength":1728,"target":34962,"byteStride":12},{"buffer":0,"byteOffset":6624,"byteLength":1728,"target":34962,"byteStride":12},{"buffer":0,"byteOffset":8352,"byteLength":1152,"target":34962,"byteStride":8},{"buffer":0,"byteOffset":9504,"byteLength":288,"target":34963},{"buffer":0,"byteOffset":9792,"byteLength":1728,"target":34962,"byteStride":12},{"buffer":0,"byteOffset":11520,"byteLength":1728,"target":34962,"byteStride":12},{"buffer":0,"byteOffset":13248,"byteLength":1152,"target":34962,"byteStride":8},{"buffer":0,"byteOffset":14400,"byteLength":288,"target":34963},{"buffer":0,"byteOffset":14688,"byteLength":1728,"target":34962,"byteStride":12},{"buffer":0,"byteOffset":16416,"byteLength":1728,"target":34962,"byteStride":12},{"buffer":0,"byteOffset":18144,"byteLength":1152,"target":34962,"byteStride":8},{"buffer":0,"byteOffset":19296,"byteLength":288,"target":34963},{"buffer":0,"byteOffset":19584,"byteLength":288,"target":34962,"byteStride":12},{"buffer":0,"byteOffset":19872,"byteLength":288,"target":34962,"byteStride":12},{"buffer":0,"byteOffset":20160,"byteLength":192,"target":34962,"byteStride":8},{"buffer":0,"byteOffset":20352,"byteLength":72,"target":34963},{"buffer":0,"byteOffset":20424,"byteLength":256},{"buffer":0,"byteOffset":20680,"byteLength":768},{"buffer":0,"byteOffset":21448,"byteLength":256},{"buffer":0,"byteOffset":21704,"byteLength":1024}],"buffers":[{"byteLength":22728,"uri":"data:application/octet-stream;base64,"}],"accessors":[{"bufferView":0,"componentType":5126,"count":144,"max":[0.09375,1,0.09375],"min":[-0.09375,-1,-0.09375],"type":"VEC3"},{"bufferView":1,"componentType":5126,"count":144,"max":[0.9956341981887817,1,0.9956341981887817],"min":[-0.9956341981887817,-1,-0.9956341981887817],"type":"VEC3"},{"bufferView":2,"componentType":5126,"count":144,"max":[0.34375,0.5323452949523926],"min":[0.004614062607288361,0],"type":"VEC2"},{"bufferView":3,"componentType":5123,"count":144,"max":[143],"min":[0],"type":"SCALAR"},{"bufferView":4,"componentType":5126,"count":144,"max":[0.09375,1,0.09375],"min":[-0.09375,-1,-0.09375],"type":"VEC3"},{"bufferView":5,"componentType":5126,"count":144,"max":[0.9956341981887817,1,0.9956341981887817],"min":[-0.9956341981887817,-1,-0.9956341981887817],"type":"VEC3"},{"bufferView":6,"componentType":5126,"count":144,"max":[0.34375,0.5323452949523926],"min":[0.004614062607288361,0],"type":"VEC2"},{"bufferView":7,"componentType":5123,"count":144,"max":[143],"min":[0],"type":"SCALAR"},{"bufferView":8,"componentType":5126,"count":144,"max":[0.09375,1,0.09375],"min":[-0.09375,-1,-0.09375],"type":"VEC3"},{"bufferView":9,"componentType":5126,"count":144,"max":[0.9956341981887817,1,0.9956341981887817],"min":[-0.9956341981887817,-1,-0.9956341981887817],"type":"VEC3"},{"bufferView":10,"componentType":5126,"count":144,"max":[0.34375,0.5323452949523926],"min":[0.004614062607288361,0],"type":"VEC2"},{"bufferView":11,"componentType":5123,"count":144,"max":[143],"min":[0],"type":"SCALAR"},{"bufferView":12,"componentType":5126,"count":144,"max":[0.09375,1,0.09375],"min":[-0.09375,-1,-0.09375],"type":"VEC3"},{"bufferView":13,"componentType":5126,"count":144,"max":[0.9956341981887817,1,0.9956341981887817],"min":[-0.9956341981887817,-1,-0.9956341981887817],"type":"VEC3"},{"bufferView":14,"componentType":5126,"count":144,"max":[0.34375,0.5323452949523926],"min":[0.004614062607288361,0],"type":"VEC2"},{"bufferView":15,"componentType":5123,"count":144,"max":[143],"min":[0],"type":"SCALAR"},{"bufferView":16,"componentType":5126,"count":24,"max":[0.5,1,0.5],"min":[-0.5,0,-0.5],"type":"VEC3"},{"bufferView":17,"componentType":5126,"count":24,"max":[1,1,1],"min":[-1,-1,-1],"type":"VEC3"},{"bufferView":18,"componentType":5126,"count":24,"max":[0.78125,0.78125],"min":[0,0],"type":"VEC2"},{"bufferView":19,"componentType":5123,"count":36,"max":[23],"min":[0],"type":"SCALAR"},{"bufferView":20,"componentType":5126,"count":64,"max":[4],"min":[0],"type":"SCALAR"},{"bufferView":21,"componentType":5126,"count":64,"max":[0,1.125,0],"min":[0,0.875,0],"type":"VEC3"},{"bufferView":22,"componentType":5126,"count":64,"max":[4],"min":[0],"type":"SCALAR"},{"bufferView":23,"componentType":5126,"count":64,"max":[0,0.08715574443340302,0,1],"min":[0,-0.08715574443340302,0,0.9961947202682495],"type":"VEC4"}],"materials":[{"pbrMetallicRoughness":{"metallicFactor":0,"roughnessFactor":1,"baseColorTexture":{"index":0}},"alphaMode":"MASK","alphaCutoff":0.05,"doubleSided":true},{"pbrMetallicRoughness":{"metallicFactor":0,"roughnessFactor":1,"baseColorTexture":{"index":1}},"alphaMode":"MASK","alphaCutoff":0.05,"doubleSided":true}],"textures":[{"sampler":0,"source":0,"name":"BosWing.png"},{"sampler":1,"source":1,"name":"BosBody.png"}],"samplers":[{"magFilter":9728,"minFilter":9728,"wrapS":33071,"wrapT":33071},{"magFilter":9728,"minFilter":9728,"wrapS":33071,"wrapT":33071}],"images":[{"mimeType":"image/png","uri":"data:image/png;base64,"},{"mimeType":"image/png","uri":"data:image/png;base64,"}],"meshes":[{"primitives":[{"mode":4,"attributes":{"POSITION":0,"NORMAL":1,"TEXCOORD_0":2},"indices":3,"material":0}]},{"primitives":[{"mode":4,"attributes":{"POSITION":4,"NORMAL":5,"TEXCOORD_0":6},"indices":7,"material":0}]},{"primitives":[{"mode":4,"attributes":{"POSITION":8,"NORMAL":9,"TEXCOORD_0":10},"indices":11,"material":0}]},{"primitives":[{"mode":4,"attributes":{"POSITION":12,"NORMAL":13,"TEXCOORD_0":14},"indices":15,"material":0}]},{"primitives":[{"mode":4,"attributes":{"POSITION":16,"NORMAL":17,"TEXCOORD_0":18},"indices":19,"material":1}]}],"animations":[{"name":"fluttering","samplers":[{"input":20,"output":21,"interpolation":"LINEAR"},{"input":22,"output":23,"interpolation":"LINEAR"}],"channels":[{"sampler":0,"target":{"node":4,"path":"translation"}},{"sampler":1,"target":{"node":6,"path":"rotation"}}]}]}