{"asset":{"version":"2.0","generator":"Blockbench 5.1.5 glTF exporter"},"scenes":[{"nodes":[13,15,17],"name":"blockbench_export"}],"scene":0,"nodes":[{"name":"body","mesh":0},{"name":"body","children":[0]},{"rotation":[-0.3826834323650898,2.3432602026631493e-17,-0.9238795325112867,5.657130561438501e-17],"translation":[0,0.8125,0],"name":"head","mesh":1},{"rotation":[0,0,0.5555702330196022,0.8314696123025452],"translation":[-0.3125,0.5,0],"name":"ear","mesh":2},{"name":"ear-left","children":[3]},{"rotation":[0,0,-0.5555702330196022,0.8314696123025452],"translation":[0.3125,-0.3125,0],"name":"ear","mesh":3},{"translation":[0,0.8125,0],"name":"ear-right","children":[5]},{"name":"head","children":[2,4,6]},{"translation":[-0.25,-0.0625,-0.0625],"name":"hand","mesh":4},{"name":"hand-left","children":[8]},{"name":"hand","mesh":5},{"translation":[0.25,-0.0625,-0.0625],"name":"hand-right","children":[10]},{"name":"hand","children":[9,11]},{"name":"upper-body","children":[1,7,12]},{"name":"foot","mesh":6},{"translation":[0.125,-0.4375,-0.0625],"name":"foot-right","children":[14]},{"name":"foot","mesh":7},{"translation":[-0.125,-0.4375,-0.0625],"name":"foot-left","children":[16]}],"bufferViews":[{"buffer":0,"byteOffset":0,"byteLength":864,"target":34962,"byteStride":12},{"buffer":0,"byteOffset":864,"byteLength":864,"target":34962,"byteStride":12},{"buffer":0,"byteOffset":1728,"byteLength":576,"target":34962,"byteStride":8},{"buffer":0,"byteOffset":2304,"byteLength":144,"target":34963},{"buffer":0,"byteOffset":2448,"byteLength":984,"target":34962,"byteStride":12},{"buffer":0,"byteOffset":3432,"byteLength":984,"target":34962,"byteStride":12},{"buffer":0,"byteOffset":4416,"byteLength":656,"target":34962,"byteStride":8},{"buffer":0,"byteOffset":5072,"byteLength":216,"target":34963},{"buffer":0,"byteOffset":5288,"byteLength":48,"target":34962,"byteStride":12},{"buffer":0,"byteOffset":5336,"byteLength":48,"target":34962,"byteStride":12},{"buffer":0,"byteOffset":5384,"byteLength":32,"target":34962,"byteStride":8},{"buffer":0,"byteOffset":5416,"byteLength":12,"target":34963},{"buffer":0,"byteOffset":5428,"byteLength":48,"target":34962,"byteStride":12},{"buffer":0,"byteOffset":5476,"byteLength":48,"target":34962,"byteStride":12},{"buffer":0,"byteOffset":5524,"byteLength":32,"target":34962,"byteStride":8},{"buffer":0,"byteOffset":5556,"byteLength":12,"target":34963},{"buffer":0,"byteOffset":5568,"byteLength":1152,"target":34962,"byteStride":12},{"buffer":0,"byteOffset":6720,"byteLength":1152,"target":34962,"byteStride":12},{"buffer":0,"byteOffset":7872,"byteLength":768,"target":34962,"byteStride":8},{"buffer":0,"byteOffset":8640,"byteLength":264,"target":34963},{"buffer":0,"byteOffset":8904,"byteLength":1152,"target":34962,"byteStride":12},{"buffer":0,"byteOffset":10056,"byteLength":1152,"target":34962,"byteStride":12},{"buffer":0,"byteOffset":11208,"byteLength":768,"target":34962,"byteStride":8},{"buffer":0,"byteOffset":11976,"byteLength":264,"target":34963},{"buffer":0,"byteOffset":12240,"byteLength":1152,"target":34962,"byteStride":12},{"buffer":0,"byteOffset":13392,"byteLength":1152,"target":34962,"byteStride":12},{"buffer":0,"byteOffset":14544,"byteLength":768,"target":34962,"byteStride":8},{"buffer":0,"byteOffset":15312,"byteLength":264,"target":34963},{"buffer":0,"byteOffset":15576,"byteLength":1152,"target":34962,"byteStride":12},{"buffer":0,"byteOffset":16728,"byteLength":1152,"target":34962,"byteStride":12},{"buffer":0,"byteOffset":17880,"byteLength":768,"target":34962,"byteStride":8},{"buffer":0,"byteOffset":18648,"byteLength":264,"target":34963},{"buffer":0,"byteOffset":18912,"byteLength":156},{"buffer":0,"byteOffset":19068,"byteLength":624},{"buffer":0,"byteOffset":19692,"byteLength":64},{"buffer":0,"byteOffset":19756,"byteLength":256},{"buffer":0,"byteOffset":20012,"byteLength":64},{"buffer":0,"byteOffset":20076,"byteLength":192},{"buffer":0,"byteOffset":20268,"byteLength":64},{"buffer":0,"byteOffset":20332,"byteLength":192},{"buffer":0,"byteOffset":20524,"byteLength":64},{"buffer":0,"byteOffset":20588,"byteLength":192},{"buffer":0,"byteOffset":20780,"byteLength":64},{"buffer":0,"byteOffset":20844,"byteLength":192},{"buffer":0,"byteOffset":21036,"byteLength":8},{"buffer":0,"byteOffset":21044,"byteLength":32},{"buffer":0,"byteOffset":21076,"byteLength":8},{"buffer":0,"byteOffset":21084,"byteLength":24},{"buffer":0,"byteOffset":21108,"byteLength":8},{"buffer":0,"byteOffset":21116,"byteLength":32},{"buffer":0,"byteOffset":21148,"byteLength":64},{"buffer":0,"byteOffset":21212,"byteLength":192},{"buffer":0,"byteOffset":21404,"byteLength":64},{"buffer":0,"byteOffset":21468,"byteLength":256},{"buffer":0,"byteOffset":21724,"byteLength":36},{"buffer":0,"byteOffset":21760,"byteLength":144},{"buffer":0,"byteOffset":21904,"byteLength":36},{"buffer":0,"byteOffset":21940,"byteLength":108},{"buffer":0,"byteOffset":22048,"byteLength":52},{"buffer":0,"byteOffset":22100,"byteLength":156},{"buffer":0,"byteOffset":22256,"byteLength":8},{"buffer":0,"byteOffset":22264,"byteLength":24},{"buffer":0,"byteOffset":22288,"byteLength":52},{"buffer":0,"byteOffset":22340,"byteLength":156},{"buffer":0,"byteOffset":22496,"byteLength":24},{"buffer":0,"byteOffset":22520,"byteLength":96},{"buffer":0,"byteOffset":22616,"byteLength":16},{"buffer":0,"byteOffset":22632,"byteLength":48}],"buffers":[{"byteLength":22680,"uri":"data:application/octet-stream;base64,"}],"accessors":[{"bufferView":0,"componentType":5126,"count":72,"max":[0.1875,0.5,0.1875],"min":[-0.1875,0,-0.1875],"type":"VEC3"},{"bufferView":1,"componentType":5126,"count":72,"max":[0.936329185962677,0.3511234521865845,0.936329185962677],"min":[-0.936329185962677,-1,-0.936329185962677],"type":"VEC3"},{"bufferView":2,"componentType":5126,"count":72,"max":[0.53125,0.5794999599456787],"min":[0.0036503125447779894,0],"type":"VEC2"},{"bufferView":3,"componentType":5123,"count":72,"max":[71],"min":[0],"type":"SCALAR"},{"bufferView":4,"componentType":5126,"count":82,"max":[0.15625,0.34375,0.15625],"min":[-0.15625,-0.01875000074505806,-0.15625],"type":"VEC3"},{"bufferView":5,"componentType":5126,"count":82,"max":[0.9103664755821228,0.7261690497398376,0.9103664755821228],"min":[-0.9229628443717957,-0.9056544303894043,-0.9238560795783997],"type":"VEC3"},{"bufferView":6,"componentType":5126,"count":82,"max":[0.5137963891029358,0.58203125],"min":[0,0],"type":"VEC2"},{"bufferView":7,"componentType":5123,"count":108,"max":[81],"min":[0],"type":"SCALAR"},{"bufferView":8,"componentType":5126,"count":4,"max":[0.3125,0,0.0625],"min":[-0.3125,0,-0.0625],"type":"VEC3"},{"bufferView":9,"componentType":5126,"count":4,"max":[0,1,0],"min":[0,1,0],"type":"VEC3"},{"bufferView":10,"componentType":5126,"count":4,"max":[0.625,0.125],"min":[0,0],"type":"VEC2"},{"bufferView":11,"componentType":5123,"count":6,"max":[3],"min":[0],"type":"SCALAR"},{"bufferView":12,"componentType":5126,"count":4,"max":[0.3125,0,0.0625],"min":[-0.3125,0,-0.0625],"type":"VEC3"},{"bufferView":13,"componentType":5126,"count":4,"max":[0,1,0],"min":[0,1,0],"type":"VEC3"},{"bufferView":14,"componentType":5126,"count":4,"max":[0.625,0.125],"min":[0,0],"type":"VEC2"},{"bufferView":15,"componentType":5123,"count":6,"max":[3],"min":[0],"type":"SCALAR"},{"bufferView":16,"componentType":5126,"count":96,"max":[0.0625,0.28125,0.0625],"min":[-0.0625,0.21875,-0.0625],"type":"VEC3"},{"bufferView":17,"componentType":5126,"count":96,"max":[1,1,1],"min":[-1,-1,-1],"type":"VEC3"},{"bufferView":18,"componentType":5126,"count":96,"max":[0.6484375,0.65625],"min":[0,0],"type":"VEC2"},{"bufferView":19,"componentType":5123,"count":132,"max":[95],"min":[0],"type":"SCALAR"},{"bufferView":20,"componentType":5126,"count":96,"max":[0.0625,0.28125,0.0625],"min":[-0.0625,0.21875,-0.0625],"type":"VEC3"},{"bufferView":21,"componentType":5126,"count":96,"max":[1,1,1],"min":[-1,-1,-1],"type":"VEC3"},{"bufferView":22,"componentType":5126,"count":96,"max":[0.6484375,0.65625],"min":[0,0],"type":"VEC2"},{"bufferView":23,"componentType":5123,"count":132,"max":[95],"min":[0],"type":"SCALAR"},{"bufferView":24,"componentType":5126,"count":96,"max":[0.0625,0.28125,0.125],"min":[-0.0625,0.21875,-0.125],"type":"VEC3"},{"bufferView":25,"componentType":5126,"count":96,"max":[1,1,1],"min":[-1,-1,-1],"type":"VEC3"},{"bufferView":26,"componentType":5126,"count":96,"max":[0.65625,0.53125],"min":[0,0],"type":"VEC2"},{"bufferView":27,"componentType":5123,"count":132,"max":[95],"min":[0],"type":"SCALAR"},{"bufferView":28,"componentType":5126,"count":96,"max":[0.0625,0.28125,0.125],"min":[-0.0625,0.21875,-0.125],"type":"VEC3"},{"bufferView":29,"componentType":5126,"count":96,"max":[1,1,1],"min":[-1,-1,-1],"type":"VEC3"},{"bufferView":30,"componentType":5126,"count":96,"max":[0.65625,0.53125],"min":[0,0],"type":"VEC2"},{"bufferView":31,"componentType":5123,"count":132,"max":[95],"min":[0],"type":"SCALAR"},{"bufferView":32,"componentType":5126,"count":39,"max":[2],"min":[0],"type":"SCALAR"},{"bufferView":33,"componentType":5126,"count":39,"max":[0,0.13052618503570557,0,1],"min":[0,-0.13052618503570557,0,0.9914448857307434],"type":"VEC4"},{"bufferView":34,"componentType":5126,"count":16,"max":[1],"min":[0],"type":"SCALAR"},{"bufferView":35,"componentType":5126,"count":16,"max":[0.19509032368659973,0,0,1],"min":[-0.19509032368659973,0,0,0.9807852506637573],"type":"VEC4"},{"bufferView":36,"componentType":5126,"count":16,"max":[1],"min":[0],"type":"SCALAR"},{"bufferView":37,"componentType":5126,"count":16,"max":[0,0,0.3125],"min":[0,0,-0.25],"type":"VEC3"},{"bufferView":38,"componentType":5126,"count":16,"max":[1],"min":[0],"type":"SCALAR"},{"bufferView":39,"componentType":5126,"count":16,"max":[0,0,0.125],"min":[0,0,-0.25],"type":"VEC3"},{"bufferView":40,"componentType":5126,"count":16,"max":[1],"min":[0],"type":"SCALAR"},{"bufferView":41,"componentType":5126,"count":16,"max":[0.125,-0.4375,0.0625],"min":[0.125,-0.4375,-0.1875],"type":"VEC3"},{"bufferView":42,"componentType":5126,"count":16,"max":[1],"min":[0],"type":"SCALAR"},{"bufferView":43,"componentType":5126,"count":16,"max":[-0.125,-0.4375,0.0625],"min":[-0.125,-0.4375,-0.1875],"type":"VEC3"},{"bufferView":44,"componentType":5126,"count":2,"max":[1],"min":[0],"type":"SCALAR"},{"bufferView":45,"componentType":5126,"count":2,"max":[0.1736481785774231,0,0,0.9848077297210693],"min":[0.1736481785774231,0,0,0.9848077297210693],"type":"VEC4"},{"bufferView":46,"componentType":5126,"count":2,"max":[1],"min":[0],"type":"SCALAR"},{"bufferView":47,"componentType":5126,"count":2,"max":[0,0.0625,-0.1875],"min":[0,0.0625,-0.1875],"type":"VEC3"},{"bufferView":48,"componentType":5126,"count":2,"max":[1],"min":[0],"type":"SCALAR"},{"bufferView":49,"componentType":5126,"count":2,"max":[-0.19509032368659973,0,0,0.9807852506637573],"min":[-0.19509032368659973,0,0,0.9807852506637573],"type":"VEC4"},{"bufferView":50,"componentType":5126,"count":16,"max":[1],"min":[0],"type":"SCALAR"},{"bufferView":51,"componentType":5126,"count":16,"max":[0.25,-0.0625,0.125],"min":[0.25,-0.0625,-0.25],"type":"VEC3"},{"bufferView":52,"componentType":5126,"count":16,"max":[1],"min":[0],"type":"SCALAR"},{"bufferView":53,"componentType":5126,"count":16,"max":[0.19509032368659973,0,0,1],"min":[-0.19509032368659973,0,0,0.9807852506637573],"type":"VEC4"},{"bufferView":54,"componentType":5126,"count":9,"max":[0.4583333432674408],"min":[0],"type":"SCALAR"},{"bufferView":55,"componentType":5126,"count":9,"max":[0,0,0.04361938685178757,0.9999997019767761],"min":[0,0,-0.06540312618017197,0.9978589415550232],"type":"VEC4"},{"bufferView":56,"componentType":5126,"count":9,"max":[0.4583333432674408],"min":[0],"type":"SCALAR"},{"bufferView":57,"componentType":5126,"count":9,"max":[0.09375,0,0],"min":[-0.072265625,0,0],"type":"VEC3"},{"bufferView":58,"componentType":5126,"count":13,"max":[0.6666666865348816],"min":[0],"type":"SCALAR"},{"bufferView":59,"componentType":5126,"count":13,"max":[0,0,0],"min":[-0.0625,0,0],"type":"VEC3"},{"bufferView":60,"componentType":5126,"count":2,"max":[0.3333333432674408],"min":[0],"type":"SCALAR"},{"bufferView":61,"componentType":5126,"count":2,"max":[0,0,0],"min":[0,0,0],"type":"VEC3"},{"bufferView":62,"componentType":5126,"count":13,"max":[0.6666666865348816],"min":[0],"type":"SCALAR"},{"bufferView":63,"componentType":5126,"count":13,"max":[0.3125,-0.0625,-0.0625],"min":[0.25,-0.0625,-0.0625],"type":"VEC3"},{"bufferView":64,"componentType":5126,"count":6,"max":[0.4583333432674408],"min":[0],"type":"SCALAR"},{"bufferView":65,"componentType":5126,"count":6,"max":[0,0,0.08715574443340302,0.9999544620513916],"min":[0,0,-0.08715574443340302,0.9961947202682495],"type":"VEC4"},{"bufferView":66,"componentType":5126,"count":4,"max":[0.4583333432674408],"min":[0],"type":"SCALAR"},{"bufferView":67,"componentType":5126,"count":4,"max":[0,0.8125,0],"min":[0,0.8125,0],"type":"VEC3"}],"materials":[{"pbrMetallicRoughness":{"metallicFactor":0,"roughnessFactor":1,"baseColorTexture":{"index":0}},"alphaMode":"MASK","alphaCutoff":0.05,"doubleSided":true},{"pbrMetallicRoughness":{"metallicFactor":0,"roughnessFactor":1,"baseColorTexture":{"index":1}},"alphaMode":"MASK","alphaCutoff":0.05,"doubleSided":true},{"pbrMetallicRoughness":{"metallicFactor":0,"roughnessFactor":1,"baseColorTexture":{"index":2}},"alphaMode":"MASK","alphaCutoff":0.05,"doubleSided":true},{"pbrMetallicRoughness":{"metallicFactor":0,"roughnessFactor":1,"baseColorTexture":{"index":3}},"alphaMode":"MASK","alphaCutoff":0.05,"doubleSided":true},{"pbrMetallicRoughness":{"metallicFactor":0,"roughnessFactor":1,"baseColorTexture":{"index":4}},"alphaMode":"MASK","alphaCutoff":0.05,"doubleSided":true}],"textures":[{"sampler":0,"source":0,"name":"hare-body.png"},{"sampler":1,"source":1,"name":"hare-head"},{"sampler":2,"source":2,"name":"hare-ear.png"},{"sampler":3,"source":3,"name":"hare-hand.png"},{"sampler":4,"source":4,"name":"hare-foot.png"}],"samplers":[{"magFilter":9728,"minFilter":9728,"wrapS":33071,"wrapT":33071},{"magFilter":9728,"minFilter":9728,"wrapS":33071,"wrapT":33071},{"magFilter":9728,"minFilter":9728,"wrapS":33071,"wrapT":33071},{"magFilter":9728,"minFilter":9728,"wrapS":33071,"wrapT":33071},{"magFilter":9728,"minFilter":9728,"wrapS":33071,"wrapT":33071}],"images":[{"mimeType":"image/png","uri":"data:image/png;base64,"},{"mimeType":"image/png","uri":"data:image/png;base64,"},{"mimeType":"image/png","uri":"data:image/png;base64,"},{"mimeType":"image/png","uri":"data:image/png;base64,"},{"mimeType":"image/png","uri":"data:image/png;base64,"}],"meshes":[{"primitives":[{"mode":4,"attributes":{"POSITION":0,"NORMAL":1,"TEXCOORD_0":2},"indices":3,"material":0}]},{"primitives":[{"mode":4,"attributes":{"POSITION":4,"NORMAL":5,"TEXCOORD_0":6},"indices":7,"material":1}]},{"primitives":[{"mode":4,"attributes":{"POSITION":8,"NORMAL":9,"TEXCOORD_0":10},"indices":11,"material":2}]},{"primitives":[{"mode":4,"attributes":{"POSITION":12,"NORMAL":13,"TEXCOORD_0":14},"indices":15,"material":2}]},{"primitives":[{"mode":4,"attributes":{"POSITION":16,"NORMAL":17,"TEXCOORD_0":18},"indices":19,"material":3}]},{"primitives":[{"mode":4,"attributes":{"POSITION":20,"NORMAL":21,"TEXCOORD_0":22},"indices":23,"material":3}]},{"primitives":[{"mode":4,"attributes":{"POSITION":24,"NORMAL":25,"TEXCOORD_0":26},"indices":27,"material":4}]},{"primitives":[{"mode":4,"attributes":{"POSITION":28,"NORMAL":29,"TEXCOORD_0":30},"indices":31,"material":4}]}],"animations":[{"name":"wait","samplers":[{"input":32,"output":33,"interpolation":"LINEAR"}],"channels":[{"sampler":0,"target":{"node":12,"path":"rotation"}}]},{"name":"sneak","samplers":[{"input":34,"output":35,"interpolation":"LINEAR"},{"input":36,"output":37,"interpolation":"LINEAR"},{"input":38,"output":39,"interpolation":"LINEAR"},{"input":40,"output":41,"interpolation":"LINEAR"},{"input":42,"output":43,"interpolation":"LINEAR"},{"input":44,"output":45,"interpolation":"LINEAR"},{"input":46,"output":47,"interpolation":"LINEAR"},{"input":48,"output":49,"interpolation":"LINEAR"},{"input":50,"output":51,"interpolation":"LINEAR"},{"input":52,"output":53,"interpolation":"LINEAR"}],"channels":[{"sampler":0,"target":{"node":4,"path":"rotation"}},{"sampler":1,"target":{"node":4,"path":"translation"}},{"sampler":2,"target":{"node":9,"path":"translation"}},{"sampler":3,"target":{"node":15,"path":"translation"}},{"sampler":4,"target":{"node":17,"path":"translation"}},{"sampler":5,"target":{"node":7,"path":"rotation"}},{"sampler":6,"target":{"node":7,"path":"translation"}},{"sampler":7,"target":{"node":13,"path":"rotation"}},{"sampler":8,"target":{"node":11,"path":"translation"}},{"sampler":9,"target":{"node":6,"path":"rotation"}}]},{"name":"jump","samplers":[{"input":54,"output":55,"interpolation":"LINEAR"},{"input":56,"output":57,"interpolation":"LINEAR"},{"input":58,"output":59,"interpolation":"LINEAR"},{"input":60,"output":61,"interpolation":"LINEAR"},{"input":62,"output":63,"interpolation":"LINEAR"},{"input":64,"output":65,"interpolation":"LINEAR"},{"input":66,"output":67,"interpolation":"LINEAR"}],"channels":[{"sampler":0,"target":{"node":4,"path":"rotation"}},{"sampler":1,"target":{"node":4,"path":"translation"}},{"sampler":2,"target":{"node":9,"path":"translation"}},{"sampler":3,"target":{"node":13,"path":"translation"}},{"sampler":4,"target":{"node":11,"path":"translation"}},{"sampler":5,"target":{"node":6,"path":"rotation"}},{"sampler":6,"target":{"node":6,"path":"translation"}}]}]}