{"asset":{"version":"2.0","generator":"Blockbench 5.1.5 glTF exporter"},"scenes":[{"nodes":[0,1,2,3,4,5,6,7],"name":"blockbench_export"}],"scene":0,"nodes":[{"name":"body","mesh":0},{"translation":[-0.125,-0.4375,-0.0625],"name":"foot","mesh":1},{"translation":[0.125,-0.4375,-0.0625],"name":"foot","mesh":2},{"translation":[-0.1875,-0.0625,-0.0625],"name":"hand","mesh":3},{"translation":[0.1875,-0.0625,-0.0625],"name":"hand","mesh":4},{"rotation":[-0.3826834323650898,2.3432602026631493e-17,-0.9238795325112867,5.657130561438501e-17],"translation":[0,0.8125,0],"name":"head","mesh":5},{"rotation":[0,0,0.5555702330196022,0.8314696123025452],"translation":[-0.3125,0.5,0],"name":"ear","mesh":6},{"rotation":[0,0,-0.5555702330196022,0.8314696123025452],"translation":[0.3125,0.5,0],"name":"ear","mesh":7}],"bufferViews":[{"buffer":0,"byteOffset":0,"byteLength":864,"target":34962,"byteStride":12},{"buffer":0,"byteOffset":864,"byteLength":864,"target":34962,"byteStride":12},{"buffer":0,"byteOffset":1728,"byteLength":576,"target":34962,"byteStride":8},{"buffer":0,"byteOffset":2304,"byteLength":144,"target":34963},{"buffer":0,"byteOffset":2448,"byteLength":1152,"target":34962,"byteStride":12},{"buffer":0,"byteOffset":3600,"byteLength":1152,"target":34962,"byteStride":12},{"buffer":0,"byteOffset":4752,"byteLength":768,"target":34962,"byteStride":8},{"buffer":0,"byteOffset":5520,"byteLength":264,"target":34963},{"buffer":0,"byteOffset":5784,"byteLength":1152,"target":34962,"byteStride":12},{"buffer":0,"byteOffset":6936,"byteLength":1152,"target":34962,"byteStride":12},{"buffer":0,"byteOffset":8088,"byteLength":768,"target":34962,"byteStride":8},{"buffer":0,"byteOffset":8856,"byteLength":264,"target":34963},{"buffer":0,"byteOffset":9120,"byteLength":1152,"target":34962,"byteStride":12},{"buffer":0,"byteOffset":10272,"byteLength":1152,"target":34962,"byteStride":12},{"buffer":0,"byteOffset":11424,"byteLength":768,"target":34962,"byteStride":8},{"buffer":0,"byteOffset":12192,"byteLength":264,"target":34963},{"buffer":0,"byteOffset":12456,"byteLength":1152,"target":34962,"byteStride":12},{"buffer":0,"byteOffset":13608,"byteLength":1152,"target":34962,"byteStride":12},{"buffer":0,"byteOffset":14760,"byteLength":768,"target":34962,"byteStride":8},{"buffer":0,"byteOffset":15528,"byteLength":264,"target":34963},{"buffer":0,"byteOffset":15792,"byteLength":672,"target":34962,"byteStride":12},{"buffer":0,"byteOffset":16464,"byteLength":672,"target":34962,"byteStride":12},{"buffer":0,"byteOffset":17136,"byteLength":448,"target":34962,"byteStride":8},{"buffer":0,"byteOffset":17584,"byteLength":144,"target":34963},{"buffer":0,"byteOffset":17728,"byteLength":48,"target":34962,"byteStride":12},{"buffer":0,"byteOffset":17776,"byteLength":48,"target":34962,"byteStride":12},{"buffer":0,"byteOffset":17824,"byteLength":32,"target":34962,"byteStride":8},{"buffer":0,"byteOffset":17856,"byteLength":12,"target":34963},{"buffer":0,"byteOffset":17868,"byteLength":48,"target":34962,"byteStride":12},{"buffer":0,"byteOffset":17916,"byteLength":48,"target":34962,"byteStride":12},{"buffer":0,"byteOffset":17964,"byteLength":32,"target":34962,"byteStride":8},{"buffer":0,"byteOffset":17996,"byteLength":12,"target":34963}],"buffers":[{"byteLength":18008,"uri":"data:application/octet-stream;base64,"}],"accessors":[{"bufferView":0,"componentType":5126,"count":72,"max":[0.1875,0.5,0.1875],"min":[-0.1875,0,-0.1875],"type":"VEC3"},{"bufferView":1,"componentType":5126,"count":72,"max":[0.936329185962677,0.3511234521865845,0.936329185962677],"min":[-0.936329185962677,-1,-0.936329185962677],"type":"VEC3"},{"bufferView":2,"componentType":5126,"count":72,"max":[0.53125,0.5794999599456787],"min":[0.0036503125447779894,0],"type":"VEC2"},{"bufferView":3,"componentType":5123,"count":72,"max":[71],"min":[0],"type":"SCALAR"},{"bufferView":4,"componentType":5126,"count":96,"max":[0.0625,0.28125,0.125],"min":[-0.0625,0.21875,-0.125],"type":"VEC3"},{"bufferView":5,"componentType":5126,"count":96,"max":[1,1,1],"min":[-1,-1,-1],"type":"VEC3"},{"bufferView":6,"componentType":5126,"count":96,"max":[0.65625,0.53125],"min":[0,0],"type":"VEC2"},{"bufferView":7,"componentType":5123,"count":132,"max":[95],"min":[0],"type":"SCALAR"},{"bufferView":8,"componentType":5126,"count":96,"max":[0.0625,0.28125,0.125],"min":[-0.0625,0.21875,-0.125],"type":"VEC3"},{"bufferView":9,"componentType":5126,"count":96,"max":[1,1,1],"min":[-1,-1,-1],"type":"VEC3"},{"bufferView":10,"componentType":5126,"count":96,"max":[0.65625,0.53125],"min":[0,0],"type":"VEC2"},{"bufferView":11,"componentType":5123,"count":132,"max":[95],"min":[0],"type":"SCALAR"},{"bufferView":12,"componentType":5126,"count":96,"max":[0.0625,0.28125,0.0625],"min":[-0.0625,0.21875,-0.0625],"type":"VEC3"},{"bufferView":13,"componentType":5126,"count":96,"max":[1,1,1],"min":[-1,-1,-1],"type":"VEC3"},{"bufferView":14,"componentType":5126,"count":96,"max":[0.6484375,0.65625],"min":[0,0],"type":"VEC2"},{"bufferView":15,"componentType":5123,"count":132,"max":[95],"min":[0],"type":"SCALAR"},{"bufferView":16,"componentType":5126,"count":96,"max":[0.0625,0.28125,0.0625],"min":[-0.0625,0.21875,-0.0625],"type":"VEC3"},{"bufferView":17,"componentType":5126,"count":96,"max":[1,1,1],"min":[-1,-1,-1],"type":"VEC3"},{"bufferView":18,"componentType":5126,"count":96,"max":[0.6484375,0.65625],"min":[0,0],"type":"VEC2"},{"bufferView":19,"componentType":5123,"count":132,"max":[95],"min":[0],"type":"SCALAR"},{"bufferView":20,"componentType":5126,"count":56,"max":[0.15625,0.34375,0.15625],"min":[-0.15625,-0.03125,-0.15625],"type":"VEC3"},{"bufferView":21,"componentType":5126,"count":56,"max":[0.85030198097229,0.5812382102012634,0.85030198097229],"min":[-0.8137334585189819,-0.8574929237365723,-0.8137334585189819],"type":"VEC3"},{"bufferView":22,"componentType":5126,"count":56,"max":[0.5137963891029358,0.58203125],"min":[0,0],"type":"VEC2"},{"bufferView":23,"componentType":5123,"count":72,"max":[55],"min":[0],"type":"SCALAR"},{"bufferView":24,"componentType":5126,"count":4,"max":[0.3125,0,0.0625],"min":[-0.3125,0,-0.0625],"type":"VEC3"},{"bufferView":25,"componentType":5126,"count":4,"max":[0,1,0],"min":[0,1,0],"type":"VEC3"},{"bufferView":26,"componentType":5126,"count":4,"max":[0.625,0.125],"min":[0,0],"type":"VEC2"},{"bufferView":27,"componentType":5123,"count":6,"max":[3],"min":[0],"type":"SCALAR"},{"bufferView":28,"componentType":5126,"count":4,"max":[0.3125,0,0.0625],"min":[-0.3125,0,-0.0625],"type":"VEC3"},{"bufferView":29,"componentType":5126,"count":4,"max":[0,1,0],"min":[0,1,0],"type":"VEC3"},{"bufferView":30,"componentType":5126,"count":4,"max":[0.625,0.125],"min":[0,0],"type":"VEC2"},{"bufferView":31,"componentType":5123,"count":6,"max":[3],"min":[0],"type":"SCALAR"}],"materials":[{"pbrMetallicRoughness":{"metallicFactor":0,"roughnessFactor":1,"baseColorTexture":{"index":0}},"alphaMode":"MASK","alphaCutoff":0.05,"doubleSided":true},{"pbrMetallicRoughness":{"metallicFactor":0,"roughnessFactor":1,"baseColorTexture":{"index":1}},"alphaMode":"MASK","alphaCutoff":0.05,"doubleSided":true},{"pbrMetallicRoughness":{"metallicFactor":0,"roughnessFactor":1,"baseColorTexture":{"index":2}},"alphaMode":"MASK","alphaCutoff":0.05,"doubleSided":true},{"pbrMetallicRoughness":{"metallicFactor":0,"roughnessFactor":1,"baseColorTexture":{"index":3}},"alphaMode":"MASK","alphaCutoff":0.05,"doubleSided":true},{"pbrMetallicRoughness":{"metallicFactor":0,"roughnessFactor":1,"baseColorTexture":{"index":4}},"alphaMode":"MASK","alphaCutoff":0.05,"doubleSided":true}],"textures":[{"sampler":0,"source":0,"name":"hare-body.png"},{"sampler":1,"source":1,"name":"hare-foot.png"},{"sampler":2,"source":2,"name":"hare-hand.png"},{"sampler":3,"source":3,"name":"hare-head"},{"sampler":4,"source":4,"name":"hare-ear.png"}],"samplers":[{"magFilter":9728,"minFilter":9728,"wrapS":33071,"wrapT":33071},{"magFilter":9728,"minFilter":9728,"wrapS":33071,"wrapT":33071},{"magFilter":9728,"minFilter":9728,"wrapS":33071,"wrapT":33071},{"magFilter":9728,"minFilter":9728,"wrapS":33071,"wrapT":33071},{"magFilter":9728,"minFilter":9728,"wrapS":33071,"wrapT":33071}],"images":[{"mimeType":"image/png","uri":"data:image/png;base64,"},{"mimeType":"image/png","uri":"data:image/png;base64,"},{"mimeType":"image/png","uri":"data:image/png;base64,"},{"mimeType":"image/png","uri":"data:image/png;base64,"},{"mimeType":"image/png","uri":"data:image/png;base64,"}],"meshes":[{"primitives":[{"mode":4,"attributes":{"POSITION":0,"NORMAL":1,"TEXCOORD_0":2},"indices":3,"material":0}]},{"primitives":[{"mode":4,"attributes":{"POSITION":4,"NORMAL":5,"TEXCOORD_0":6},"indices":7,"material":1}]},{"primitives":[{"mode":4,"attributes":{"POSITION":8,"NORMAL":9,"TEXCOORD_0":10},"indices":11,"material":1}]},{"primitives":[{"mode":4,"attributes":{"POSITION":12,"NORMAL":13,"TEXCOORD_0":14},"indices":15,"material":2}]},{"primitives":[{"mode":4,"attributes":{"POSITION":16,"NORMAL":17,"TEXCOORD_0":18},"indices":19,"material":2}]},{"primitives":[{"mode":4,"attributes":{"POSITION":20,"NORMAL":21,"TEXCOORD_0":22},"indices":23,"material":3}]},{"primitives":[{"mode":4,"attributes":{"POSITION":24,"NORMAL":25,"TEXCOORD_0":26},"indices":27,"material":4}]},{"primitives":[{"mode":4,"attributes":{"POSITION":28,"NORMAL":29,"TEXCOORD_0":30},"indices":31,"material":4}]}]}